# xmcd CD database file
#
# Track frame offsets:
#	150
#	22100
#	41395
#	55312
#	76280
#	98135
#	118742
#	137020
#	159080
#	181265
#
# Disc length: 2697 seconds
#
# Revision: 0
# Processed by: cddbd v1.5PL3 Copyright (c) Steve Scherf et al.
# Submitted via: CDex 1.50
#
DISCID=770a870a
DTITLE=杉本 理恵 - Be Natural
DYEAR=1993
DGENRE=Pop
TTITLE0=心のままに
TTITLE1=ささやきがKISSになる
TTITLE2=君に逢いたい時 いつも空を見ている
TTITLE3=あなたのとなりを歩きたい
TTITLE4=やっぱりあきらめない
TTITLE5=Fight!
TTITLE6=ひと駅ぶんのチケットで
TTITLE7=あなたが私で 私があなた
TTITLE8=空に育つ樹
TTITLE9=瞳を閉じれば
EXTD=YEAR: 1993
EXTT0=
EXTT1=
EXTT2=
EXTT3=
EXTT4=
EXTT5=
EXTT6=
EXTT7=
EXTT8=
EXTT9=
PLAYORDER=
